<svg xmlns="http://www.w3.org/2000/svg" viewBox="0 0 96 96" fill="none">
  <defs>
    <linearGradient id="gold" x1="10" y1="20" x2="86" y2="76" gradientUnits="userSpaceOnUse">
      <stop stop-color="#FFF3C4"/>
      <stop offset="0.5" stop-color="#D4AF37"/>
      <stop offset="1" stop-color="#8B6914"/>
    </linearGradient>
  </defs>
  <path d="M28 24c-6 0-10 4-10 10v28c0 6 4 10 10 10" stroke="url(#gold)" stroke-width="2"/>
  <path d="M68 24c6 0 10 4 10 10v28c0 6-4 10-10 10" stroke="url(#gold)" stroke-width="2"/>
  <rect x="28" y="24" width="40" height="48" rx="2" stroke="url(#gold)" stroke-width="2" fill="rgba(212,175,55,0.08)"/>
  <path d="M36 36h24M36 46h20M36 56h16" stroke="url(#gold)" stroke-width="1.5" stroke-linecap="round"/>
  <path d="M48 62c-8 4-8 12 0 16 8-4 8-12 0-16z" fill="url(#gold)"/>
  <path d="M22 58c4-2 8-2 12 0M62 58c4-2 8-2 12 0" stroke="url(#gold)" stroke-width="1.4" stroke-linecap="round"/>
  <ellipse cx="22" cy="58" rx="4" ry="8" fill="url(#gold)" opacity="0.85"/>
  <ellipse cx="74" cy="58" rx="4" ry="8" fill="url(#gold)" opacity="0.85"/>
</svg>
