<svg xmlns="http://www.w3.org/2000/svg" viewBox="0 0 96 96" fill="none">
  <defs>
    <linearGradient id="gold" x1="12" y1="8" x2="84" y2="88" gradientUnits="userSpaceOnUse">
      <stop stop-color="#FFF3C4"/>
      <stop offset="0.45" stop-color="#D4AF37"/>
      <stop offset="1" stop-color="#8B6914"/>
    </linearGradient>
  </defs>
  <circle cx="48" cy="48" r="44" stroke="url(#gold)" stroke-width="2" opacity="0.35"/>
  <path d="M62 68c-8 6-18 8-28 4-10-4-16-12-16-22 0-8 4-14 10-18-2 6 0 12 4 16 2-10 8-18 18-22 2 8-2 16-8 22 6-2 12-2 18 2-4-8-4-18 2-26 8 6 12 16 10 26 4-2 8-2 12 0-6 8-14 14-24 18z" fill="url(#gold)"/>
  <path d="M34 34c4-6 10-10 18-10" stroke="#FFF3C4" stroke-width="1.5" stroke-linecap="round" opacity="0.8"/>
  <circle cx="58" cy="36" r="2.5" fill="#1a1208"/>
</svg>
