<?xml version="1.0" encoding="UTF-8"?>
<svg xmlns="http://www.w3.org/2000/svg" viewBox="0 0 800 500" width="800" height="500">
  <defs>
    <linearGradient id="bg" x1="0%" y1="0%" x2="100%" y2="100%">
      <stop offset="0%" stop-color="#0a0806"/>
      <stop offset="55%" stop-color="#14100a"/>
      <stop offset="100%" stop-color="#1f180f"/>
    </linearGradient>
    <linearGradient id="gold" x1="0%" y1="0%" x2="0%" y2="100%">
      <stop offset="0%" stop-color="#f5cd56"/>
      <stop offset="100%" stop-color="#a67c00"/>
    </linearGradient>
    <radialGradient id="glow" cx="50%" cy="40%" r="55%">
      <stop offset="0%" stop-color="#d4a843" stop-opacity="0.18"/>
      <stop offset="100%" stop-color="#d4a843" stop-opacity="0"/>
    </radialGradient>
  </defs>
  <rect width="800" height="500" fill="url(#bg)"/>
  <ellipse cx="400" cy="220" rx="320" ry="180" fill="url(#glow)"/>
  <rect x="24" y="24" width="752" height="452" rx="28" fill="none" stroke="#d4a843" stroke-opacity="0.22" stroke-width="2"/>
  
    <g transform="translate(400,245)">
      <rect x="-70" y="-40" width="140" height="90" rx="6" fill="#f5e6c8" stroke="#c9a227" stroke-width="2"/>
      <text x="0" y="-5" text-anchor="middle" font-size="14" fill="#5c3d1e">1236</text>
      <path d="M-50 15 L-30 35 L-10 5 L10 30 L30 10 L50 25" fill="none" stroke="#8b4513" stroke-width="2"/>
      
      <g transform="translate(-130,25) scale(0.95)">
        <ellipse cx="0" cy="110" rx="40" ry="10" fill="#000" opacity="0.35"/>
        <path d="M-18 42 L18 42 L22 108 L-22 108 Z" fill="#5c3d1e"/>
        <circle cx="0" cy="18" r="20" fill="#6b4423"/>
        <path d="M-22 48 L-38 85" stroke="#6b4423" stroke-width="7" stroke-linecap="round"/>
        <path d="M22 48 L38 85" stroke="#6b4423" stroke-width="7" stroke-linecap="round"/>
      </g>
      <text x="0" y="115" text-anchor="middle" font-size="18" font-family="Georgia,serif" fill="#d4a843">Histoire du Manden</text>
    </g>
</svg>