<?xml version="1.0" encoding="UTF-8"?>
<svg xmlns="http://www.w3.org/2000/svg" viewBox="0 0 800 500" width="800" height="500">
  <defs>
    <linearGradient id="bg" x1="0%" y1="0%" x2="100%" y2="100%">
      <stop offset="0%" stop-color="#0a0806"/>
      <stop offset="55%" stop-color="#14100a"/>
      <stop offset="100%" stop-color="#1f180f"/>
    </linearGradient>
    <linearGradient id="gold" x1="0%" y1="0%" x2="0%" y2="100%">
      <stop offset="0%" stop-color="#f5cd56"/>
      <stop offset="100%" stop-color="#a67c00"/>
    </linearGradient>
    <radialGradient id="glow" cx="50%" cy="40%" r="55%">
      <stop offset="0%" stop-color="#d4a843" stop-opacity="0.18"/>
      <stop offset="100%" stop-color="#d4a843" stop-opacity="0"/>
    </radialGradient>
  </defs>
  <rect width="800" height="500" fill="url(#bg)"/>
  <ellipse cx="400" cy="220" rx="320" ry="180" fill="url(#glow)"/>
  <rect x="24" y="24" width="752" height="452" rx="28" fill="none" stroke="#d4a843" stroke-opacity="0.22" stroke-width="2"/>
  
    <g transform="translate(400,250)">
      <ellipse cx="0" cy="-60" rx="100" ry="55" fill="#2d5a27" opacity="0.8"/>
      <rect x="-15" y="-120" width="30" height="90" fill="#4a3728"/>
      <g transform="translate(-80,30)">
      <g transform="translate(0,0) scale(0.85)">
        <ellipse cx="0" cy="110" rx="40" ry="10" fill="#000" opacity="0.35"/>
        <path d="M-18 42 L18 42 L22 108 L-22 108 Z" fill="#3d2914"/>
        <circle cx="0" cy="18" r="20" fill="#6b4423"/>
        <path d="M-22 48 L-38 85" stroke="#6b4423" stroke-width="7" stroke-linecap="round"/>
        <path d="M22 48 L38 85" stroke="#6b4423" stroke-width="7" stroke-linecap="round"/>
      </g></g>
      <g transform="translate(0,20)">
      <g transform="translate(0,0) scale(0.9)">
        <ellipse cx="0" cy="110" rx="40" ry="10" fill="#000" opacity="0.35"/>
        <path d="M-18 42 L18 42 L22 108 L-22 108 Z" fill="#4a3728"/>
        <circle cx="0" cy="18" r="20" fill="#8d5524"/>
        <path d="M-22 48 L-38 85" stroke="#8d5524" stroke-width="7" stroke-linecap="round"/>
        <path d="M22 48 L38 85" stroke="#8d5524" stroke-width="7" stroke-linecap="round"/>
      </g></g>
      <g transform="translate(80,30)">
      <g transform="translate(0,0) scale(0.85)">
        <ellipse cx="0" cy="110" rx="40" ry="10" fill="#000" opacity="0.35"/>
        <path d="M-18 42 L18 42 L22 108 L-22 108 Z" fill="#3d2914"/>
        <circle cx="0" cy="18" r="20" fill="#6b4423"/>
        <path d="M-22 48 L-38 85" stroke="#6b4423" stroke-width="7" stroke-linecap="round"/>
        <path d="M22 48 L38 85" stroke="#6b4423" stroke-width="7" stroke-linecap="round"/>
      </g></g>
      <rect x="-40" y="55" width="80" height="30" rx="4" fill="#f5e6c8" stroke="#c9a227"/>
      <text x="0" y="75" text-anchor="middle" font-size="16" font-family="serif" fill="#1a1008">ߛߞߏ</text>
      <text x="0" y="125" text-anchor="middle" font-size="18" font-family="Georgia,serif" fill="#d4a843">Cours N'ko</text>
    </g>
</svg>