<?xml version="1.0" encoding="UTF-8"?>
<svg xmlns="http://www.w3.org/2000/svg" viewBox="0 0 800 500" width="800" height="500">
  <defs>
    <linearGradient id="bg" x1="0%" y1="0%" x2="100%" y2="100%">
      <stop offset="0%" stop-color="#0a0806"/>
      <stop offset="55%" stop-color="#14100a"/>
      <stop offset="100%" stop-color="#1f180f"/>
    </linearGradient>
    <linearGradient id="gold" x1="0%" y1="0%" x2="0%" y2="100%">
      <stop offset="0%" stop-color="#f5cd56"/>
      <stop offset="100%" stop-color="#a67c00"/>
    </linearGradient>
    <radialGradient id="glow" cx="50%" cy="40%" r="55%">
      <stop offset="0%" stop-color="#d4a843" stop-opacity="0.18"/>
      <stop offset="100%" stop-color="#d4a843" stop-opacity="0"/>
    </radialGradient>
  </defs>
  <rect width="800" height="500" fill="url(#bg)"/>
  <ellipse cx="400" cy="220" rx="320" ry="180" fill="url(#glow)"/>
  <rect x="24" y="24" width="752" height="452" rx="28" fill="none" stroke="#d4a843" stroke-opacity="0.22" stroke-width="2"/>
  
    <g transform="translate(400,245)">
      <path d="M-120 50 L120 50" stroke="#8b6914" stroke-width="4"/>
      <rect x="-40" y="10" width="35" height="40" fill="#c9a227"/>
      
      <g transform="translate(-90,15) scale(1)">
        <ellipse cx="0" cy="110" rx="40" ry="10" fill="#000" opacity="0.35"/>
        <path d="M-18 42 L18 42 L22 108 L-22 108 Z" fill="#7c2d12"/>
        <circle cx="0" cy="18" r="20" fill="#8d5524"/>
        <path d="M-22 48 L-38 85" stroke="#8d5524" stroke-width="7" stroke-linecap="round"/>
        <path d="M22 48 L38 85" stroke="#8d5524" stroke-width="7" stroke-linecap="round"/>
      </g>
      <ellipse cx="50" cy="35" rx="25" ry="18" fill="#d4a843"/>
      <path d="M30 20 L70 20 L65 50 L35 50 Z" fill="#5c3d1e"/>
      <text x="0" y="115" text-anchor="middle" font-size="18" font-family="Georgia,serif" fill="#d4a843">Commerce</text>
    </g>
</svg>