<?xml version="1.0" encoding="UTF-8"?>
<svg xmlns="http://www.w3.org/2000/svg" viewBox="0 0 800 500" width="800" height="500">
  <defs>
    <linearGradient id="bg" x1="0%" y1="0%" x2="100%" y2="100%">
      <stop offset="0%" stop-color="#0a0806"/>
      <stop offset="55%" stop-color="#14100a"/>
      <stop offset="100%" stop-color="#1f180f"/>
    </linearGradient>
    <linearGradient id="gold" x1="0%" y1="0%" x2="0%" y2="100%">
      <stop offset="0%" stop-color="#f5cd56"/>
      <stop offset="100%" stop-color="#a67c00"/>
    </linearGradient>
    <radialGradient id="glow" cx="50%" cy="40%" r="55%">
      <stop offset="0%" stop-color="#d4a843" stop-opacity="0.18"/>
      <stop offset="100%" stop-color="#d4a843" stop-opacity="0"/>
    </radialGradient>
  </defs>
  <rect width="800" height="500" fill="url(#bg)"/>
  <ellipse cx="400" cy="220" rx="320" ry="180" fill="url(#glow)"/>
  <rect x="24" y="24" width="752" height="452" rx="28" fill="none" stroke="#d4a843" stroke-opacity="0.22" stroke-width="2"/>
  
    <g transform="translate(400,250)">
      <path d="M-100 40 Q-100 -20 0 -50 Q100 -20 100 40" fill="none" stroke="#d4a843" stroke-width="4"/>
      <rect x="-80" y="30" width="160" height="55" rx="6" fill="#f5e6c8" stroke="#c9a227" stroke-width="2"/>
      <path d="M-60 45 Q0 20 60 45" fill="none" stroke="#8b6914" stroke-width="2"/>
      <path d="M-40 55 L-20 35 M0 58 L0 32 M40 55 L20 35" stroke="#8b6914" stroke-width="1.5"/>
      <path d="M-120 85 L120 85" stroke="#6b4423" stroke-width="14" stroke-linecap="round"/>
      <circle cx="130" cy="75" r="16" fill="#8d5524"/>
      <text x="0" y="125" text-anchor="middle" font-size="18" font-family="Georgia,serif" fill="#d4a843">Institutions</text>
    </g>
</svg>